<svg width="65" height="30" viewBox="0 0 65 30" fill="none" xmlns="http://www.w3.org/2000/svg">
<path d="M0.0568182 15.4432V13.4545C1.3447 13.4545 2.24242 13.1932 2.75 12.6705C3.26515 12.1402 3.52273 11.2803 3.52273 10.0909V7.19318C3.52273 5.91288 3.68182 4.86364 4 4.04545C4.32576 3.22727 4.79924 2.59091 5.42045 2.13636C6.04167 1.68182 6.79924 1.36742 7.69318 1.19318C8.58712 1.01136 9.60227 0.920454 10.7386 0.920454V4.07954C9.8447 4.07954 9.15909 4.20454 8.68182 4.45454C8.20455 4.69697 7.875 5.07197 7.69318 5.57954C7.51894 6.08712 7.43182 6.73485 7.43182 7.52273V11.25C7.43182 11.8333 7.33333 12.3788 7.13636 12.8864C6.93939 13.3939 6.57955 13.8409 6.05682 14.2273C5.53409 14.6061 4.78788 14.9053 3.81818 15.125C2.85606 15.3371 1.60227 15.4432 0.0568182 15.4432ZM10.7386 29.7955C9.60227 29.7955 8.58712 29.7045 7.69318 29.5227C6.79924 29.3485 6.04167 29.0341 5.42045 28.5795C4.79924 28.125 4.32576 27.4886 4 26.6705C3.68182 25.8523 3.52273 24.803 3.52273 23.5227V20.6364C3.52273 19.447 3.26515 18.5909 2.75 18.0682C2.24242 17.5379 1.3447 17.2727 0.0568182 17.2727V15.2841C1.60227 15.2841 2.85606 15.3939 3.81818 15.6136C4.78788 15.8258 5.53409 16.125 6.05682 16.5114C6.57955 16.8902 6.93939 17.3333 7.13636 17.8409C7.33333 18.3485 7.43182 18.8902 7.43182 19.4659V23.1932C7.43182 23.9811 7.51894 24.6288 7.69318 25.1364C7.875 25.6439 8.20455 26.0227 8.68182 26.2727C9.15909 26.5227 9.8447 26.6477 10.7386 26.6477V29.7955ZM0.0568182 17.2727V13.4545H3.65909V17.2727H0.0568182ZM13.8892 27V3.72727H22.6165C24.4044 3.72727 25.9044 4.06061 27.1165 4.72727C28.3362 5.39394 29.2566 6.31061 29.8778 7.47727C30.5066 8.63636 30.821 9.95454 30.821 11.4318C30.821 12.9242 30.5066 14.25 29.8778 15.4091C29.2491 16.5682 28.321 17.4811 27.0938 18.1477C25.8665 18.8068 24.3551 19.1364 22.5597 19.1364H16.7756V15.6705H21.9915C23.0369 15.6705 23.893 15.4886 24.5597 15.125C25.2263 14.7614 25.7188 14.2614 26.0369 13.625C26.3627 12.9886 26.5256 12.2576 26.5256 11.4318C26.5256 10.6061 26.3627 9.87879 26.0369 9.25C25.7188 8.62121 25.2225 8.13258 24.5483 7.78409C23.8816 7.42803 23.0218 7.25 21.9688 7.25H18.1051V27H13.8892ZM34.8778 27H30.3778L38.571 3.72727H43.7756L51.9801 27H47.4801L41.2642 8.5H41.0824L34.8778 27ZM35.0256 17.875H47.2983V21.2614H35.0256V17.875ZM64.2841 15.2841V17.2727C62.9962 17.2727 62.0947 17.5379 61.5795 18.0682C61.072 18.5909 60.8182 19.447 60.8182 20.6364V23.5227C60.8182 24.803 60.6553 25.8523 60.3295 26.6705C60.0114 27.4886 59.5417 28.125 58.9205 28.5795C58.2992 29.0341 57.5417 29.3485 56.6477 29.5227C55.7538 29.7045 54.7386 29.7955 53.6023 29.7955V26.6477C54.4962 26.6477 55.1818 26.5227 55.6591 26.2727C56.1364 26.0227 56.4621 25.6439 56.6364 25.1364C56.8182 24.6288 56.9091 23.9811 56.9091 23.1932V19.4659C56.9091 18.8902 57.0076 18.3485 57.2045 17.8409C57.4015 17.3333 57.7614 16.8902 58.2841 16.5114C58.8068 16.125 59.5492 15.8258 60.5114 15.6136C61.4811 15.3939 62.7386 15.2841 64.2841 15.2841ZM53.6023 0.920454C54.7386 0.920454 55.7538 1.01136 56.6477 1.19318C57.5417 1.36742 58.2992 1.68182 58.9205 2.13636C59.5417 2.59091 60.0114 3.22727 60.3295 4.04545C60.6553 4.86364 60.8182 5.91288 60.8182 7.19318V10.0909C60.8182 11.2803 61.072 12.1402 61.5795 12.6705C62.0947 13.1932 62.9962 13.4545 64.2841 13.4545V15.4432C62.7386 15.4432 61.4811 15.3371 60.5114 15.125C59.5492 14.9053 58.8068 14.6061 58.2841 14.2273C57.7614 13.8409 57.4015 13.3939 57.2045 12.8864C57.0076 12.3788 56.9091 11.8333 56.9091 11.25V7.52273C56.9091 6.73485 56.8182 6.08712 56.6364 5.57954C56.4621 5.07197 56.1364 4.69697 55.6591 4.45454C55.1818 4.20454 54.4962 4.07954 53.6023 4.07954V0.920454ZM64.2841 13.4545V17.2727H60.6818V13.4545H64.2841Z" fill="url(#paint0_linear_11_3)"/>
<defs>
<linearGradient id="paint0_linear_11_3" x1="-24.7077" y1="17.9375" x2="83.5228" y2="18.4824" gradientUnits="userSpaceOnUse">
<stop stop-color="#2EE583"/>
<stop offset="1" stop-color="#2E56E5" stop-opacity="0.79"/>
</linearGradient>
</defs>
</svg>
